<svg xmlns="http://www.w3.org/2000/svg" viewBox="0 0 16 16" shape-rendering="crispEdges">
  <defs>
    <linearGradient id="wing" x1="0" y1="0" x2="0" y2="1">
      <stop offset="0" stop-color="#ff2d0f"/>
      <stop offset="1" stop-color="#ff8a00"/>
    </linearGradient>
  </defs>
  <rect width="16" height="16" rx="3.5" fill="#000000"/>
  <g fill="url(#wing)" transform="translate(0,4)">
    <rect x="0" y="0" width="1" height="1"/>
    <rect x="15" y="0" width="1" height="1"/>
    <rect x="0" y="1" width="2" height="1"/>
    <rect x="14" y="1" width="2" height="1"/>
    <rect x="0" y="2" width="4" height="1"/>
    <rect x="12" y="2" width="4" height="1"/>
    <rect x="1" y="3" width="5" height="1"/>
    <rect x="10" y="3" width="5" height="1"/>
    <rect x="2" y="4" width="5" height="1"/>
    <rect x="9" y="4" width="5" height="1"/>
    <rect x="4" y="5" width="4" height="1"/>
    <rect x="8" y="5" width="4" height="1"/>
    <rect x="6" y="6" width="4" height="1"/>
  </g>
</svg>
